<?xml version="1.0" encoding="UTF-8" standalone="no"?>
<svg
   xmlns:dc="http://purl.org/dc/elements/1.1/"
   xmlns:cc="http://creativecommons.org/ns#"
   xmlns:rdf="http://www.w3.org/1999/02/22-rdf-syntax-ns#"
   xmlns:svg="http://www.w3.org/2000/svg"
   xmlns="http://www.w3.org/2000/svg"
   height="1024"
   width="1024"
   id="svg4"
   version="1.1"
   viewBox="0 0 1024 1024">
  <metadata
     id="metadata10">
    <rdf:RDF>
      <cc:Work
         rdf:about="">
        <dc:format>image/svg+xml</dc:format>
        <dc:type
           rdf:resource="http://purl.org/dc/dcmitype/StillImage" />
        <dc:title></dc:title>
      </cc:Work>
    </rdf:RDF>
  </metadata>
  <defs
     id="defs8" />
  <path
     style="stroke:none;stroke-opacity:1;fill:#000000;fill-opacity:0.33333334"
     id="path2"
     d="m 447.1,623.99995 c -34.2,0.5 -62.3,28.4 -63,62.6 -0.5,24.3 12.5,45.6 32,56.8 v 112.6 c 0,57.3 -50.2,104.00005 -112,104.00005 -60,0 -109.2,-44.10005 -111.9,-99.20005 72.8,-15 127.8,-79.6 127.8,-156.8 v -155.4 c 0,-11.4 -8.1,-21.3 -19.3,-23.5 l -62.9,-12.6 c -13,-2.6 -25.6,5.8 -28.2,18.8 l -3.2,15.7 c -2.6,13 5.8,25.6 18.8,28.2 l 30.7,6.1 v 121.4 c 0,52.9 -42.2,96.7 -95.1,97.2 -53.4,0.5 -96.9,-42.7 -96.9,-96 v -122.5 l 30.7,-6.1 c 13,-2.6 21.4,-15.2 18.8,-28.2 l -3.1,-15.7 c -2.6,-13 -15.2,-21.4 -28.2,-18.8 l -62.8,12.4 c -11.2,2.3 -19.3,12.1 -19.3,23.6 v 155.4 c 0,77.3 55.1,142 128.1,156.8 C 130.7,951.2 208.6,1024 304,1024 c 97,0 176,-75.4 176,-168.00005 v -112.6 c 19.1,-11.1 32,-31.7 32,-55.4 0,-35.7 -29.2,-64.5 -64.9,-64 z m 0.9,80 c -8.8,0 -16,-7.2 -16,-16 0,-8.8 7.2,-16 16,-16 8.8,0 16,7.2 16,16 0,8.8 -7.2,16 -16,16 z" />
  <path
     style="fill:#000000;fill-opacity:0.33333334"
     d="m 959.1,112 c -34.2,0.5 -62.3,28.4 -63,62.6 -0.5,24.3 12.5,45.6 32,56.8 V 344 c 0,57.3 -50.2,104 -112,104 -60,0 -109.2,-44.1 -111.9,-99.2 C 777,333.8 832,269.2 832,192 V 36.600003 c 0,-11.4 -8.1,-21.3 -19.3,-23.5 l -62.9,-12.6 c -13,-2.6 -25.6,5.8 -28.2,18.8 l -3.2,15.7 c -2.6,13 5.8,25.6 18.8,28.2 l 30.7,6.1 V 190.7 c 0,52.9 -42.2,96.7 -95.1,97.2 -53.4,0.5 -96.9,-42.7 -96.9,-96 V 69.400003 l 30.7,-6.1 c 13,-2.6 21.4,-15.2 18.8,-28.2 l -3.1,-15.7 c -2.6,-13 -15.2,-21.4 -28.2,-18.8 l -62.8,12.4 c -11.2,2.3 -19.3,12.1 -19.3,23.6 V 192 c 0,77.3 55.1,142 128.1,156.8 2.6,90.4 80.5,163.2 175.9,163.2 97,0 176,-75.4 176,-168 V 231.4 c 19.1,-11.1 32,-31.7 32,-55.4 0,-35.7 -29.2,-64.5 -64.9,-64 z m 0.9,80 c -8.8,0 -16,-7.2 -16,-16 0,-8.8 7.2,-16 16,-16 8.8,0 16,7.2 16,16 0,8.8 -7.2,16 -16,16 z"
     id="path4520" />
</svg>
